<svg width="170" height="39" viewBox="0 0 170 39" fill="none" xmlns="http://www.w3.org/2000/svg">
<path fill-rule="evenodd" clip-rule="evenodd" d="M26.2345 23.8792C27.1631 25.3124 29.0131 25.6301 30.3666 24.5887C31.7201 23.5474 32.0646 21.5414 31.136 20.1082L19.62 2.33439C18.6914 0.901198 16.8414 0.583521 15.4879 1.62484C15.0279 1.97875 14.6844 2.44408 14.4679 2.96049C14.1807 3.21595 13.938 3.53685 13.7608 3.91646L0.297173 32.7474C-0.417262 34.2773 0.200645 36.1813 1.67731 37.0001C3.15397 37.819 4.93021 37.2425 5.64464 35.7126L17.4803 10.3678L26.2345 23.8792ZM36.6772 37.0001C35.2006 36.1813 34.5827 34.2773 35.2971 32.7474L49.2368 2.89695C49.9512 1.36706 51.7275 0.790617 53.2041 1.60943C54.6808 2.42825 55.2987 4.33225 54.5843 5.86214L40.6446 35.7126C39.9301 37.2425 38.1539 37.819 36.6772 37.0001Z" fill="#FF8B37"/>
<rect x="136.037" y="1.01636" width="33" height="6" rx="3" fill="#FF8B37"/>
<rect x="157.818" y="3.92578" width="35.3913" height="6" rx="3" transform="rotate(108.556 157.818 3.92578)" fill="#FF8B37"/>
<rect width="37.0533" height="5.9755" rx="2.98775" transform="matrix(0.253393 0.967364 -0.975961 0.217946 115.749 0.558105)" fill="#FF8B37"/>
<rect width="46.3766" height="5.81634" rx="2.90817" transform="matrix(-0.669199 0.743083 -0.793185 -0.608981 134.537 3.54199)" fill="#FF8B37"/>
<rect x="65.6459" y="1.01636" width="35.3913" height="6" rx="3" fill="#FF8B37"/>
<rect x="60.8633" y="16.0164" width="35.3913" height="6" rx="3" fill="#FF8B37"/>
<rect x="57.0372" y="31.0164" width="35.3913" height="6" rx="3" fill="#FF8B37"/>
</svg>
